<?xml version="1.0" encoding="utf-8"?>
<!-- Generator: Adobe Illustrator 27.4.1, SVG Export Plug-In . SVG Version: 6.00 Build 0)  -->
<svg version="1.1" id="Layer_1" xmlns="http://www.w3.org/2000/svg" xmlns:xlink="http://www.w3.org/1999/xlink" x="0px" y="0px"
	 viewBox="0 0 80 80" style="enable-background:new 0 0 80 80;" xml:space="preserve">
<style type="text/css">
	.st0{fill-rule:evenodd;clip-rule:evenodd;}
	.st1{fill:#00A7E1;}
</style>
<g id="Money">
	<g>
		<g>
			<path d="M26.04,69.92c-12.34,0-22.38-10.04-22.38-22.38c0-12.34,10.04-22.38,22.38-22.38c12.34,0,22.38,10.04,22.38,22.38
				C48.41,59.88,38.37,69.92,26.04,69.92z M26.04,29.18c-10.12,0-18.36,8.24-18.36,18.36c0,10.12,8.24,18.36,18.36,18.36
				c10.12,0,18.36-8.24,18.36-18.36C44.4,37.42,36.16,29.18,26.04,29.18z"/>
		</g>
		<g>
			<path class="st1" d="M24.78,62.71v-3.73c-2.14-0.04-4.36-0.7-5.65-1.63l0.89-2.48c1.33,0.89,3.25,1.59,5.32,1.59
				c2.62,0,4.4-1.51,4.4-3.62c0-2.03-1.44-3.29-4.17-4.4c-3.77-1.48-6.09-3.18-6.09-6.39c0-3.07,2.18-5.39,5.58-5.95v-3.73h2.29
				v3.58c2.22,0.07,3.73,0.67,4.8,1.29l-0.92,2.44c-0.78-0.44-2.29-1.26-4.65-1.26c-2.84,0-3.92,1.7-3.92,3.18
				c0,1.92,1.37,2.88,4.58,4.21c3.8,1.55,5.73,3.47,5.73,6.76c0,2.92-2.03,5.65-5.84,6.28v3.84H24.78z"/>
		</g>
		<path d="M76.29,15.87c-0.54-3.22-9.63-5.79-20.79-5.79c-11.16,0-20.24,2.57-20.79,5.79h-0.05v4.72h0.06
			c0.58,3.21,9.65,5.77,20.78,5.77c11.13,0,20.2-2.55,20.78-5.77h0.06v-4.72H76.29z"/>
		<path d="M55.5,28.41c-4.72,0-9.55-0.48-13.44-1.42c2.13,1.68,3.99,3.66,5.51,5.91c2.44,0.3,5.12,0.46,7.93,0.46
			c11.13,0,20.2-2.55,20.78-5.77h0.06v-4.14C73.67,26.71,64.39,28.41,55.5,28.41z"/>
		<path d="M55.5,35.82c-2.14,0-4.31-0.1-6.4-0.3c0.76,1.48,1.38,3.04,1.85,4.67c1.47,0.1,2.98,0.15,4.55,0.15
			c11.13,0,20.2-2.55,20.78-5.77h0.06v-3.72C73.67,34.13,64.39,35.82,55.5,35.82z"/>
		<path d="M55.5,42.81c-1.32,0-2.65-0.04-3.96-0.12c0.27,1.48,0.43,3,0.44,4.56c1.15,0.06,2.32,0.09,3.53,0.09
			c11.13,0,20.2-2.55,20.78-5.77h0.06v-3.73C73.67,41.11,64.39,42.81,55.5,42.81z"/>
		<path d="M55.5,49.63c-1.21,0-2.43-0.03-3.63-0.1c-0.13,1.6-0.42,3.16-0.84,4.67c1.44,0.09,2.93,0.15,4.47,0.15
			c11.13,0,20.2-2.55,20.78-5.77h0.06v-3.9C73.67,47.93,64.39,49.63,55.5,49.63z"/>
		<path d="M55.5,56.82c-1.76,0-3.53-0.07-5.26-0.2c-0.58,1.52-1.3,2.96-2.15,4.32c2.3,0.26,4.8,0.4,7.41,0.4
			c11.13,0,20.2-2.55,20.78-5.77h0.06v-3.72C73.67,55.12,64.39,56.82,55.5,56.82z"/>
	</g>
</g>
</svg>
